<?xml version="1.0" encoding="utf-8"?>
<!-- Generator: Adobe Illustrator 26.5.0, SVG Export Plug-In . SVG Version: 6.00 Build 0)  -->
<svg version="1.1" id="Layer_1" xmlns="http://www.w3.org/2000/svg" xmlns:xlink="http://www.w3.org/1999/xlink" x="0px" y="0px"
	 viewBox="0 0 500 500" style="enable-background:new 0 0 500 500;" xml:space="preserve">
<style type="text/css">
	.st0{clip-path:url(#SVGID_00000131340382041575043570000017538994272682748594_);}
	.st1{opacity:0.7;clip-path:url(#SVGID_00000011720731153292642380000008361904364862836637_);}
	.st2{fill:#E64B56;}
	.st3{fill:#FFEED9;}
</style>
<g transform="matrix(1.3333 0 0 -1.3333 0 1122.5) scale(5.2) translate(-628 -121)">
	<g>
		<defs>
			<rect id="SVGID_1_" x="-506.95" y="-500.68" width="2277.25" height="1610.34"/>
		</defs>
		<clipPath id="SVGID_00000181087814939169090940000013402131545937286019_">
			<use xlink:href="#SVGID_1_"  style="overflow:visible;"/>
		</clipPath>
		<g style="clip-path:url(#SVGID_00000181087814939169090940000013402131545937286019_);">
			<g>
				<defs>
					<rect id="SVGID_00000152243813539492738600000003041179940180280219_" x="414.06" y="-3.16" width="500" height="500"/>
				</defs>
				<clipPath id="SVGID_00000001665182291668473600000009737389550577880241_">
					<use xlink:href="#SVGID_00000152243813539492738600000003041179940180280219_"  style="overflow:visible;"/>
				</clipPath>
				<g style="opacity:0.7;clip-path:url(#SVGID_00000001665182291668473600000009737389550577880241_);">
					<g transform="translate(781.28 165.4)">
						<path class="st2" d="M-81.16,56.35c0-6.05-4.91-10.96-10.96-10.96h-50.2c-6.05,0-10.96,4.91-10.96,10.96v50.2
							c0,6.05,4.91,10.96,10.96,10.96h50.2c6.05,0,10.96-4.91,10.96-10.96V56.35z"/>
					</g>
				</g>
			</g>
			<g transform="translate(698.93 223.2)">
				<path class="st3" d="M-38.41,26.34c1.66,0.06,3.04,0.66,4.15,1.79c0.54,0.8,0.88,1.62,1.03,2.47c0.09,0.84,0.14,1.55,0.14,2.12
					c0,2.49-0.64,4.99-1.91,7.52c-0.6,1.21-1.38,2.2-2.36,2.96c-0.99,0.72-2.14,1.1-3.43,1.14c-1.71-0.04-3.13-0.73-4.26-2.07
					c-0.96-1.4-1.41-2.96-1.37-4.69c0-2.28,0.67-4.65,2-7.12c0.65-1.15,1.48-2.13,2.5-2.93C-40.89,26.74-39.73,26.34-38.41,26.34
					 M-29.62,7.86c0,1.6-0.52,2.99-1.57,4.18c-1.1,1.13-2.83,2.51-5.18,4.15c-0.4,0.04-0.87,0.06-1.42,0.06
					c-0.32,0.04-1.14,0-2.47-0.12c-1.3-0.18-2.64-0.48-4.01-0.89c-0.32-0.12-0.77-0.31-1.35-0.56c-0.58-0.27-1.17-0.65-1.78-1.14
					c-0.58-0.51-1.07-1.15-1.47-1.91c-0.46-0.8-0.69-1.76-0.69-2.89c0-2.22,1-4.04,3.01-5.48c1.91-1.44,4.52-2.17,7.83-2.22
					c2.97,0.04,5.24,0.7,6.8,1.97C-30.38,4.28-29.62,5.89-29.62,7.86 M-32.06,44.16c0.4-0.25,0.84-0.6,1.34-1.08
					c0.48-0.49,0.94-1.1,1.39-1.82c0.44-0.68,0.82-1.47,1.16-2.4c0.28-0.92,0.42-2,0.42-3.23c-0.04-2.26-0.54-4.06-1.5-5.41
					c-0.47-0.66-0.96-1.26-1.49-1.81c-0.58-0.55-1.2-1.12-1.86-1.69c-0.38-0.39-0.72-0.83-1.04-1.32c-0.38-0.51-0.56-1.1-0.56-1.78
					c0-0.66,0.19-1.2,0.58-1.63c0.33-0.41,0.65-0.77,0.95-1.08l2.14-1.75c1.33-1.09,2.49-2.28,3.49-3.6
					c0.94-1.33,1.43-3.08,1.48-5.23c0-3.06-1.35-5.76-4.05-8.12c-2.79-2.44-6.83-3.7-12.11-3.78c-4.42,0.04-7.71,0.98-9.89,2.82
					c-2.2,1.72-3.3,3.78-3.3,6.17c0,1.17,0.36,2.47,1.07,3.9c0.69,1.43,1.95,2.69,3.77,3.77c2.04,1.16,4.19,1.95,6.43,2.33
					c2.23,0.33,4.07,0.51,5.55,0.55c-0.45,0.6-0.86,1.24-1.22,1.92c-0.41,0.66-0.62,1.46-0.62,2.38c0,0.56,0.08,1.02,0.24,1.39
					c0.14,0.39,0.27,0.75,0.39,1.08c-0.72-0.08-1.39-0.12-2.02-0.12c-3.36,0.04-5.92,1.1-7.68,3.17c-1.84,1.93-2.77,4.17-2.77,6.74
					c0,3.1,1.3,5.9,3.92,8.43c1.79,1.47,3.65,2.44,5.59,2.89c1.91,0.39,3.71,0.58,5.38,0.58h12.61l-3.89-2.27L-32.06,44.16z"/>
			</g>
			<g transform="translate(763.85 250.65)">
				<path class="st3" d="M-72.11,12.09h-6.62v6.62h-3.21v-6.62h-6.62V8.89h6.62V2.27h3.21v6.61h6.62V12.09z"/>
			</g>
		</g>
	</g>
</g>
</svg>
