<?xml version="1.0" encoding="utf-8"?>
<!-- Generator: Adobe Illustrator 26.5.0, SVG Export Plug-In . SVG Version: 6.00 Build 0)  -->
<svg version="1.1" id="Layer_1" xmlns="http://www.w3.org/2000/svg" xmlns:xlink="http://www.w3.org/1999/xlink" x="0px" y="0px"
	 viewBox="0 0 500 500" style="enable-background:new 0 0 500 500;" xml:space="preserve">
<style type="text/css">
	.st0{clip-path:url(#SVGID_00000029018654595018305860000006386519542412074933_);}
	.st1{opacity:0.8;}
	.st2{fill:#33679A;}
	.st3{fill:#FFEED9;}
</style>
<g>
	<g>
		<defs>
			<rect id="SVGID_1_" y="0.02" width="500" height="499.98"/>
		</defs>
		<clipPath id="SVGID_00000127027422489984220030000005425370004386904453_">
			<use xlink:href="#SVGID_1_"  style="overflow:visible;"/>
		</clipPath>
		<g style="clip-path:url(#SVGID_00000127027422489984220030000005425370004386904453_);">
			<g class="st1">
				<path class="st2" d="M500.05,424.04c0.03,41.96-33.97,76.01-75.93,76.03c-0.03,0-0.07,0-0.1,0H75.98
					C34.02,500.08,0,466.06,0,424.09c0-0.02,0-0.03,0-0.05V76.01C0,34.04,34.02,0.02,75.98,0.02h348.03
					c41.96-0.03,76.01,33.97,76.03,75.93c0,0.02,0,0.03,0,0.05V424.04z"/>
			</g>
		</g>
	</g>
	<path class="st3" d="M253.7,199.04c-32.25,0-58.41,25.33-58.41,56.61s26.15,56.58,58.41,56.58s58.41-25.35,58.41-56.58
		S285.95,199.04,253.7,199.04 M365.96,233.82h-25.6c2.49,8.1,3.75,16.53,3.75,25c0,48.35-40.48,87.51-90.41,87.51
		s-90.41-39.2-90.41-87.51c0-8.47,1.27-16.9,3.75-25h-26.68v122.84c0.01,6.37,5.18,11.53,11.55,11.53h202.52
		c6.37,0,11.54-5.16,11.55-11.53L365.96,233.82z M319.88,143.14c-7.23,0.03-13.09,5.89-13.1,13.13v31.28
		c0.01,7.23,5.87,13.09,13.1,13.1h32.85c7.23-0.01,13.09-5.87,13.1-13.1v-31.28c-0.01-7.23-5.87-13.1-13.1-13.13H319.88z
		 M145.36,110.86h216.15c20.58,0.1,37.23,16.75,37.33,37.33v216.15c-0.11,20.57-16.76,37.21-37.33,37.3H145.36
		c-20.57-0.1-37.22-16.74-37.33-37.3V148.19C108.13,127.61,124.79,110.96,145.36,110.86"/>
</g>
</svg>
