<?xml version="1.0" encoding="utf-8"?>
<!-- Generator: Adobe Illustrator 26.5.0, SVG Export Plug-In . SVG Version: 6.00 Build 0)  -->
<svg version="1.1" id="Layer_1" xmlns="http://www.w3.org/2000/svg" xmlns:xlink="http://www.w3.org/1999/xlink" x="0px" y="0px"
	 viewBox="0 0 500 500" style="enable-background:new 0 0 500 500;" xml:space="preserve">
<style type="text/css">
	.st0{clip-path:url(#SVGID_00000127018540250629675920000001065940565301558434_);}
	.st1{opacity:0.8;}
	.st2{fill:#45556B;}
	.st3{fill:#FFEED9;}
</style>
<g>
	<g>
		<defs>
			<rect id="SVGID_1_" x="1.91" width="500" height="500"/>
		</defs>
		<clipPath id="SVGID_00000120551678956593230350000000057452448440835518_">
			<use xlink:href="#SVGID_1_"  style="overflow:visible;"/>
		</clipPath>
		<g style="clip-path:url(#SVGID_00000120551678956593230350000000057452448440835518_);">
			<g class="st1">
				<path class="st2" d="M501.96,424.02c0.03,41.96-33.97,76.01-75.93,76.03c-0.03,0-0.07,0-0.1,0H77.89
					c-41.96,0-75.98-34.02-75.98-75.98c0-0.02,0-0.03,0-0.05V75.98C1.91,34.02,35.93,0,77.89,0h348.03
					c41.96-0.03,76,33.97,76.03,75.93c0,0.02,0,0.03,0,0.05V424.02z"/>
			</g>
		</g>
	</g>
	<path class="st3" d="M261.21,86.26v81.71h76.68v50.76h-76.68v82.91c0,18.74,0.98,30.76,2.95,36.08c2.07,5.42,6,9.94,11.08,12.75
		c7.42,4.37,15.91,6.61,24.53,6.45c16.37,0,32.64-5.33,48.8-15.98v50.98c-11.99,5.86-24.56,10.45-37.5,13.7
		c-11.92,2.7-24.11,4.01-36.33,3.93c-13.27,0.22-26.5-1.67-39.18-5.6c-10.65-3.35-20.53-8.77-29.08-15.95
		c-7.26-5.89-12.99-13.46-16.68-22.05c-3.08-7.75-4.63-19.02-4.63-33.8V218.72h-35.75v-45.75c11.9-3.71,22.94-9.73,32.5-17.73
		c9.12-7.66,16.6-17.09,21.98-27.73c6.11-13,9.95-26.95,11.33-41.25H261.21z"/>
</g>
</svg>
