<?xml version="1.0" encoding="utf-8"?>
<!-- Generator: Adobe Illustrator 26.5.0, SVG Export Plug-In . SVG Version: 6.00 Build 0)  -->
<svg version="1.1" id="Layer_1" xmlns="http://www.w3.org/2000/svg" xmlns:xlink="http://www.w3.org/1999/xlink" x="0px" y="0px"
	 viewBox="0 0 500 500" style="enable-background:new 0 0 500 500;" xml:space="preserve">
<style type="text/css">
	.st0{clip-path:url(#SVGID_00000081608943272622824470000018350774966904300682_);}
	.st1{opacity:0.7;clip-path:url(#SVGID_00000138546181935459438880000009634380272605184685_);}
	.st2{fill:#62CBEF;}
	.st3{fill:#FFEED9;}
</style>
<g transform="matrix(1.3333 0 0 -1.3333 0 1122.5) translate(-3175 -1998) scale(5.2)">
	<g>
		<defs>
			<rect id="SVGID_1_" x="-517.75" y="-306.24" width="2277.25" height="1610.34"/>
		</defs>
		<clipPath id="SVGID_00000152222953237123373860000005275653957509830557_">
			<use xlink:href="#SVGID_1_"  style="overflow:visible;"/>
		</clipPath>
		<g style="clip-path:url(#SVGID_00000152222953237123373860000005275653957509830557_);">
			<g>
				<defs>
					<rect id="SVGID_00000136389684777469756040000000556151160196179604_" x="396.64" y="260.08" width="500" height="500"/>
				</defs>
				<clipPath id="SVGID_00000116236290967576753820000013377266710135105465_">
					<use xlink:href="#SVGID_00000136389684777469756040000000556151160196179604_"  style="overflow:visible;"/>
				</clipPath>
				<g style="opacity:0.7;clip-path:url(#SVGID_00000116236290967576753820000013377266710135105465_);">
					<g transform="translate(763.98 427.66)">
						<path class="st2" d="M-81.28,57.32c0-6.05-4.91-10.96-10.96-10.96h-50.2c-6.05,0-10.96,4.91-10.96,10.96v50.2
							c0,6.05,4.91,10.96,10.96,10.96h50.2c6.05,0,10.96-4.91,10.96-10.96V57.32z"/>
					</g>
				</g>
			</g>
			<g transform="translate(742.57 507.31)">
				<path class="st3" d="M-70.17,15.96c-1.69-0.75-3.52-1.26-5.43-1.49c1.95,1.17,3.45,3.02,4.15,5.23c-1.82-1.08-3.84-1.87-6-2.29
					c-1.72,1.84-4.18,2.98-6.9,2.98c-5.22,0-9.45-4.23-9.45-9.45c0-0.74,0.08-1.46,0.24-2.15c-7.85,0.39-14.81,4.15-19.47,9.87
					c-0.81-1.4-1.28-3.02-1.28-4.75c0-3.28,1.67-6.17,4.2-7.86c-1.55,0.05-3,0.48-4.28,1.18V7.11c0-4.58,3.26-8.4,7.58-9.26
					c-0.79-0.21-1.63-0.33-2.49-0.33c-0.61,0-1.2,0.06-1.78,0.17c1.2-3.75,4.69-6.48,8.82-6.56c-3.23-2.53-7.3-4.04-11.73-4.04
					c-0.76,0-1.51,0.05-2.25,0.13c4.18-2.68,9.15-4.24,14.48-4.24c17.38,0,26.88,14.39,26.88,26.88c0,0.41-0.01,0.82-0.03,1.22
					C-73.04,12.41-71.44,14.07-70.17,15.96"/>
			</g>
		</g>
	</g>
</g>
</svg>
