<?xml version="1.0" encoding="utf-8"?>
<!-- Generator: Adobe Illustrator 26.5.0, SVG Export Plug-In . SVG Version: 6.00 Build 0)  -->
<svg version="1.1" id="Layer_1" xmlns="http://www.w3.org/2000/svg" xmlns:xlink="http://www.w3.org/1999/xlink" x="0px" y="0px"
	 viewBox="0 0 500 500" style="enable-background:new 0 0 500 500;" xml:space="preserve">
<style type="text/css">
	.st0{clip-path:url(#SVGID_00000156577916077343212380000017018820256316417186_);}
	.st1{opacity:0.7;}
	.st2{fill:#CB2129;}
	.st3{fill:#FFEED9;}
	.st4{clip-path:url(#SVGID_00000140699009718986770320000012927354629757807008_);}
</style>
<g>
	<g>
		<defs>
			<rect id="SVGID_1_" width="498.4" height="498.4"/>
		</defs>
		<clipPath id="SVGID_00000047036812087826993060000015831797553941437868_">
			<use xlink:href="#SVGID_1_"  style="overflow:visible;"/>
		</clipPath>
		<g style="clip-path:url(#SVGID_00000047036812087826993060000015831797553941437868_);">
			<g class="st1">
				<path class="st2" d="M498.45,422.66c0.03,41.83-33.86,75.76-75.69,75.79c-0.03,0-0.07,0-0.1,0H75.74
					C33.91,498.45,0,464.54,0,422.71c0-0.02,0-0.03,0-0.05V75.74C0,33.91,33.91,0,75.74,0h346.92
					c41.83-0.03,75.76,33.86,75.79,75.69c0,0.02,0,0.03,0,0.05V422.66z"/>
			</g>
		</g>
	</g>
	<path class="st3" d="M341.64,204.36V97.75H322.3v81.7c-4.31,6.06-8.35,9.05-12.24,9.05c-2.49,0-4.11-1.55-4.54-4.54
		c-0.29-2.48-0.38-4.98-0.25-7.48V97.75h-19.29v84.39c-0.22,5.35,0.36,10.7,1.72,15.88c1.92,5.41,6.21,7.95,12.46,7.95
		c7.05,0,14.38-4.29,22.11-13.13v11.54H341.64z M250.74,173.56c0,9.97-2.99,14.83-9.22,14.83s-9.25-4.98-9.25-14.83V128.7
		c0-9.97,2.99-14.8,9.25-14.8c6.26,0,9.22,4.98,9.22,14.8V173.56z M270.11,169.92v-37.38c0-11.41-1.97-19.74-6.01-25.15
		c-9.8-12.45-27.83-14.6-40.28-4.8c-1.79,1.4-3.4,3.02-4.8,4.8c-4.11,5.41-6.06,13.73-6.06,25.15v37.38
		c0,11.34,1.94,19.76,6.06,25.12c9.82,12.45,27.87,14.58,40.32,4.76c1.77-1.39,3.37-2.99,4.76-4.76
		C268.17,189.68,270.11,181.29,270.11,169.92 M212.79,61.23h-21.68l-14.65,56.25l-15.23-56.25h-22.58
		c4.51,13.26,9.25,26.62,13.76,39.88c5.38,14.8,9.76,29.95,13.11,45.33v57.92h21.41v-57.89L212.79,61.23z"/>
	<path class="st3" d="M404.29,333.96c0,24.7,0,50.89-5.56,74.77c-3.65,16.58-17.36,29.06-34.22,31.13
		c-39.28,4.39-79.03,4.41-118.61,4.39c-39.58-0.02-79.33,0-118.61-4.39c-16.86-2.06-30.58-14.54-34.22-31.13
		c-5.51-23.98-5.51-50.17-5.51-74.77c0-24.6,0-50.87,5.58-74.77c3.6-16.62,17.34-29.13,34.22-31.15
		c39.28-4.41,79.03-4.41,118.61-4.41s79.33,0,118.61,4.41c16.86,2.05,30.58,14.55,34.17,31.15c5.51,24,5.48,50.17,5.48,74.77"/>
	<g>
		<defs>
			<rect id="SVGID_00000156565075485784174460000012058101877727779746_" x="111.15" y="260.76" width="269.54" height="143.23"/>
		</defs>
		<clipPath id="SVGID_00000060024051531960173230000002854411967522757540_">
			<use xlink:href="#SVGID_00000156565075485784174460000012058101877727779746_"  style="overflow:visible;"/>
		</clipPath>
		<g style="clip-path:url(#SVGID_00000060024051531960173230000002854411967522757540_);">
			<g class="st1">
				<path class="st2" d="M380.69,368.85v-2.79h-19.54c0.1,4.32-0.04,8.65-0.4,12.96c-1.1,5.11-3.86,7.68-8.55,7.68
					c-6.55,0-9.77-4.98-9.77-14.65v-18.72h38.28v-21.86c0-11.29-1.92-19.56-5.93-24.92c-5.24-7.16-13.71-11.23-22.58-10.84
					c-8.96-0.39-17.55,3.66-22.93,10.84c-4.09,5.33-5.91,13.61-5.91,24.92v36.89c0,11.22,2.07,19.56,6.13,24.92
					c5.47,7.21,14.14,11.26,23.18,10.82c9.18,0.46,17.94-3.87,23.15-11.44c2.33-3.44,3.86-7.36,4.46-11.46
					c0.17-1.92,0.42-6.18,0.42-12.46 M361.57,337.25h-19.12v-9.77c0-9.77,3.2-14.66,9.6-14.68c6.33,0,9.52,4.98,9.52,14.68
					L361.57,337.25z M308.44,370.85v-42.07c0.29-7.13-0.36-14.27-1.92-21.23c-2.49-7.9-7.68-11.91-15.3-11.91
					c-7.03,0-13.58,3.86-19.76,11.46v-46.33h-19.14v141.78h19.14v-10.22c6.38,7.9,12.96,11.69,19.76,11.69
					c7.63,0,12.76-4.01,15.3-11.86c1.53-6.99,2.18-14.14,1.92-21.28 M289.3,372.37c0,9.55-2.82,14.23-8.32,14.23
					c-3.68-0.21-7.13-1.9-9.55-4.69v-64.4c2.43-2.77,5.87-4.45,9.55-4.66c5.51,0,8.32,4.98,8.32,14.41V372.37z M216.58,402.55
					v-11.51c-7.48,8.72-14.95,12.98-21.86,12.98c-6.18,0-10.44-2.49-12.34-7.85c-1.34-5.12-1.91-10.41-1.69-15.7V296.9h19.14v77.78
					c-0.1,2.49-0.04,4.99,0.17,7.48c0.47,2.97,1.92,4.46,4.49,4.46c3.84,0,7.88-2.97,12.11-8.95v-80.75h19.17v105.65L216.58,402.55z
					 M177.9,280.75v-19.94h-66.74v19.94h22.43v121.8h21.28v-121.8H177.9z"/>
			</g>
		</g>
	</g>
</g>
</svg>
